<svg width="18" height="18" viewBox="0 0 18 18" fill="none" xmlns="http://www.w3.org/2000/svg">
<path d="M12.216 7.071C11.7945 6.36704 11.1537 5.82077 10.3919 5.51599C9.63015 5.21121 8.78941 5.16474 7.99867 5.38371C7.20793 5.60267 6.51086 6.07499 6.01435 6.72822C5.51785 7.38144 5.24934 8.1795 5.25 9C5.24934 9.8205 5.51785 10.6186 6.01435 11.2718C6.51086 11.925 7.20793 12.3973 7.99867 12.6163C8.78941 12.8353 9.63015 12.7888 10.3919 12.484C11.1537 12.1792 11.7945 11.633 12.216 10.929L10.9298 10.158C10.7273 10.4952 10.44 10.7735 10.0965 10.9651C9.75305 11.1566 9.36533 11.2548 8.97206 11.2498C8.57878 11.2448 8.19368 11.1368 7.85516 10.9366C7.51663 10.7364 7.23651 10.4509 7.04272 10.1086C6.84892 9.7664 6.74822 9.37933 6.75067 8.98603C6.75311 8.59273 6.8586 8.20694 7.05663 7.86712C7.25467 7.52731 7.53831 7.24534 7.8793 7.04932C8.22028 6.85331 8.60669 6.75011 9 6.75C9.81975 6.75 10.5375 7.188 10.9298 7.84275L12.216 7.071ZM16.5 9C16.5 4.86 13.14 1.5 9 1.5C4.86 1.5 1.5 4.86 1.5 9C1.5 13.14 4.86 16.5 9 16.5C13.14 16.5 16.5 13.14 16.5 9ZM3 9C3 5.685 5.685 3 9 3C12.315 3 15 5.685 15 9C15 12.315 12.315 15 9 15C5.685 15 3 12.315 3 9Z" fill="#969696"/>
</svg>
