<svg width="24" height="24" viewBox="0 0 24 24" fill="none" xmlns="http://www.w3.org/2000/svg">
<path d="M12.001 2C6.501 2 2.001 6.5 2.001 12C2.001 17.5 6.501 22 12.001 22C17.501 22 22.001 17.5 22.001 12C22.001 6.5 17.551 2 12.001 2ZM15.751 16.65C13.401 15.2 10.451 14.9 6.951 15.7C6.601 15.8 6.301 15.55 6.201 15.25C6.101 14.9 6.351 14.6 6.651 14.5C10.451 13.65 13.751 14 16.351 15.6C16.701 15.75 16.751 16.15 16.601 16.45C16.401 16.75 16.051 16.85 15.751 16.65ZM16.751 13.95C14.051 12.3 9.951 11.8 6.801 12.8C6.401 12.9 5.951 12.7 5.851 12.3C5.751 11.9 5.951 11.45 6.351 11.35C10.001 10.25 14.501 10.8 17.601 12.7C17.901 12.85 18.051 13.35 17.801 13.7C17.551 14.05 17.101 14.2 16.751 13.95ZM6.3 9.75C5.8 9.9 5.3 9.6 5.15 9.15C5 8.65 5.3 8.15 5.75 8C9.3 6.95 15.15 7.15 18.85 9.35C19.3 9.6 19.45 10.2 19.2 10.65C18.95 11 18.35 11.15 17.9 10.9C14.7 9 9.35 8.8 6.3 9.75Z" fill="#ACACAC"/>
</svg>
