<svg width="24" height="24" viewBox="0 0 24 24" fill="none" xmlns="http://www.w3.org/2000/svg">
<path d="M10.464 8.59594C10.729 8.59594 10.944 10.7019 10.944 13.2999L10.943 13.6509C10.924 16.0849 10.717 18.0039 10.464 18.0039C10.208 18.0039 9.999 16.0389 9.984 13.5639V13.2119C9.989 10.6549 10.202 8.59594 10.464 8.59594ZM8.8 9.55594C9.059 9.55594 9.27 11.3559 9.28 13.6099V13.9499C9.27 16.2039 9.059 18.0039 8.8 18.0039C8.545 18.0039 8.336 16.2489 8.32 14.0339V13.6939L8.322 13.3539C8.347 11.2209 8.552 9.55594 8.8 9.55594ZM7.136 9.55594C7.391 9.55594 7.6 11.3109 7.616 13.5259V13.8659L7.614 14.2059C7.589 16.3389 7.384 18.0039 7.136 18.0039C6.877 18.0039 6.666 16.2039 6.656 13.9499V13.6099C6.666 11.3559 6.877 9.55594 7.136 9.55594ZM5.472 10.1319C5.737 10.1319 5.952 11.8939 5.952 14.0679L5.95 14.4029C5.93 16.4199 5.723 18.0039 5.472 18.0039C5.21 18.0039 4.998 16.2869 4.992 14.1519V13.9839C4.998 11.8489 5.21 10.1319 5.472 10.1319ZM3.808 11.8599C4.073 11.8599 4.288 13.2349 4.288 14.9319V15.0899C4.275 16.7129 4.065 18.0039 3.808 18.0039C3.543 18.0039 3.328 16.6289 3.328 14.9319V14.7739C3.341 13.1509 3.551 11.8599 3.808 11.8599ZM14.592 7.05994C17.172 7.05994 19.312 8.94594 19.71 11.4149C20.1694 11.2831 20.6517 11.2508 21.1247 11.3202C21.5976 11.3896 22.0503 11.5591 22.4524 11.8174C22.8546 12.0757 23.1971 12.4168 23.4569 12.818C23.7168 13.2192 23.888 13.6712 23.9593 14.1439C24.0305 14.6165 24.0001 15.0989 23.87 15.5589C23.7399 16.0188 23.5132 16.4458 23.205 16.8111C22.8968 17.1765 22.5142 17.4718 22.0827 17.6775C21.6513 17.8832 21.1809 17.9945 20.703 18.0039H12.48C12.2763 18.0039 12.081 17.923 11.9369 17.779C11.7929 17.635 11.712 17.4396 11.712 17.2359V7.93294C12.5639 7.36224 13.5666 7.05832 14.592 7.05994ZM2.144 11.6679C2.409 11.6679 2.624 13.0009 2.624 14.6439V14.7999C2.61 16.3699 2.401 17.6199 2.144 17.6199C1.884 17.6199 1.671 16.3299 1.664 14.7219V14.6439C1.664 13.0009 1.879 11.6679 2.144 11.6679ZM0.48 12.6279C0.745 12.6279 0.96 13.5739 0.96 14.7399V14.8709C0.944 15.9759 0.735 16.8519 0.48 16.8519C0.215 16.8519 0 15.9059 0 14.7399V14.6089C0.016 13.5039 0.225 12.6279 0.48 12.6279Z" fill="#ACACAC"/>
</svg>
